<svg
  xmlns="http://www.w3.org/2000/svg"
  version="1.1"
  viewBox="48 9.5 499 567"
>
  <style>
    * { fill: rgb(34, 170, 34); }

    @media (prefers-color-scheme: dark) {
      * { fill: rgb(34, 170, 34); }
    }
  </style>
  <polygon
    points="297.64 9.98 48.52 153.81 48.52 441.47 281.2 575.81 281.2 537.71 81.52 422.42 81.52 172.86 297.64 48.08 513.76 172.86 513.76 422.42 314.15 537.66 314.15 575.77 546.76 441.47 546.76 153.81 297.64 9.98"
  />
  <polygon
    points="480.55 230.67 297.64 125.06 114.72 230.67 114.72 192.03 297.64 86.42 480.55 192.03 480.55 230.67"
  />
  <polyline
    points="314.15 499.32 480.55 403.25 480.55 364.61 314.15 460.68"
  />
  <polyline
    points="281.14 460.69 114.72 364.61 114.72 403.25 281.12 499.32"
  />
  <polygon
    points="480.55 307.94 297.64 202.33 114.72 307.94 114.72 269.3 297.64 163.7 480.55 269.3 480.55 307.94"
  />
  <polygon
    points="480.55 287.34 297.64 392.94 114.72 287.34 114.72 325.97 297.64 431.58 480.55 325.97 480.55 287.34"
  />
  <path
    fill-rule="evenodd"
    d="M297.64,183.86c62.83,0,113.78,50.95,113.78,113.78s-50.95,113.78-113.78,113.78s-113.78-50.95-113.78-113.78
  S234.81,183.86,297.64,183.86z M297.64,216.86c44.69,0,80.78,36.09,80.78,80.78s-36.09,80.78-80.78,80.78
  s-80.78-36.09-80.78-80.78S252.95,216.86,297.64,216.86z"
  />
  <circle cx="297.64" cy="297.64" r="41.09" />
</svg>
